<?xml version="1.0" standalone="no"?>
<!DOCTYPE svg PUBLIC "-//W3C//DTD SVG 20010904//EN"
 "http://www.w3.org/TR/2001/REC-SVG-20010904/DTD/svg10.dtd">
<svg version="1.0" xmlns="http://www.w3.org/2000/svg"
 width="85.000000pt" height="85.000000pt" viewBox="0 0 85.000000 85.000000"
 preserveAspectRatio="xMidYMid meet">
<metadata>
Created by potrace 1.11, written by Peter Selinger 2001-2013
</metadata>
<g transform="translate(0.000000,85.000000) scale(0.100000,-0.100000)"
fill="#000000" stroke="none">
<path d="M349 845 c-3 -2 -18 -6 -35 -9 -94 -17 -191 -92 -217 -169 -16 -50
-14 -135 7 -174 39 -76 97 -109 274 -153 139 -35 164 -50 160 -93 -2 -22 -10
-35 -28 -44 -64 -30 -196 -17 -304 31 -33 15 -61 24 -63 22 -2 -2 -20 -39 -39
-82 l-34 -79 59 -28 c153 -73 375 -77 507 -9 79 40 134 128 134 214 0 124
-103 210 -293 242 -114 20 -174 56 -164 98 18 70 175 78 318 15 l35 -16 36 84
35 83 -41 20 c-23 12 -63 26 -91 33 -49 11 -248 23 -256 14z"/>
</g>
</svg>
