<?xml version="1.0" encoding="UTF-8"?>
<svg width="242px" height="47px" viewBox="0 0 242 47" version="1.1" xmlns="http://www.w3.org/2000/svg" xmlns:xlink="http://www.w3.org/1999/xlink">
    <!-- Generator: Sketch 43.2 (39069) - http://www.bohemiancoding.com/sketch -->
    <title>logo-white</title>
    <desc>Created with Sketch.</desc>
    <defs></defs>
    <g id="Page-1" stroke="none" stroke-width="1" fill="none" fill-rule="evenodd">
        <g id="logo-white" fill="#F2F2F5">
            <path d="M8.664,45.552 C5.2506496,44.6559955 2.477344,43.4613408 0.344,41.968 L4.504,32.624 C6.50934336,33.9466733 8.83465344,35.0133293 11.48,35.824 C14.1253466,36.6346707 16.7279872,37.04 19.288,37.04 C24.1520243,37.04 26.584,35.8240122 26.584,33.392 C26.584,32.1119936 25.8906736,31.1626698 24.504,30.544 C23.1173264,29.9253302 20.8880154,29.2746701 17.816,28.592 C14.4453165,27.866663 11.6293446,27.0880042 9.368,26.256 C7.10665536,25.4239958 5.16534144,24.0906758 3.544,22.256 C1.92265856,20.4213242 1.112,17.9466822 1.112,14.832 C1.112,12.1013197 1.8586592,9.63734432 3.352,7.44 C4.8453408,5.24265568 7.07465184,3.5040064 10.04,2.224 C13.0053482,0.9439936 16.6426451,0.304 20.952,0.304 C23.8960147,0.304 26.797319,0.63466336 29.656,1.296 C32.514681,1.95733664 35.0319891,2.9279936 37.208,4.208 L33.304,13.616 C29.037312,11.3119885 24.8986867,10.16 20.888,10.16 C18.3706541,10.16 16.5360058,10.5333296 15.384,11.28 C14.2319942,12.0266704 13.656,12.9973274 13.656,14.192 C13.656,15.3866726 14.3386598,16.2826637 15.704,16.88 C17.0693402,17.4773363 19.2666515,18.0959968 22.296,18.736 C25.7093504,19.461337 28.5359888,20.2399958 30.776,21.072 C33.0160112,21.9040042 34.9573251,23.2266576 36.6,25.04 C38.2426749,26.8533424 39.064,29.3173178 39.064,32.432 C39.064,35.1200134 38.3173408,37.5519891 36.824,39.728 C35.3306592,41.9040109 33.0906816,43.6426602 30.104,44.944 C27.1173184,46.2453398 23.490688,46.896 19.224,46.896 C15.5973152,46.896 12.0773504,46.4480045 8.664,45.552 Z" id="S"></path>
            <path d="M175.988,20.8 L181.82,20.8 L181.82,46 L175.988,46 L175.988,20.8 Z M208.451,20.8 L208.451,46 L203.663,46 L191.099,30.7 L191.099,46 L185.339,46 L185.339,20.8 L190.163,20.8 L202.691,36.1 L202.691,20.8 L208.451,20.8 Z M217.064,44.758 C214.98799,43.6419944 213.356006,42.0940099 212.168,40.114 C210.979994,38.1339901 210.386,35.8960125 210.386,33.4 C210.386,30.9039875 210.979994,28.6660099 212.168,26.686 C213.356006,24.7059901 214.98799,23.1580056 217.064,22.042 C219.14001,20.9259944 221.473987,20.368 224.066,20.368 C226.250011,20.368 228.223991,20.7519962 229.988,21.52 C231.752009,22.2880038 233.233994,23.3919928 234.434,24.832 L230.69,28.288 C228.985991,26.3199902 226.874013,25.336 224.354,25.336 C222.793992,25.336 221.402006,25.6779966 220.178,26.362 C218.953994,27.0460034 218.000003,27.9999939 217.316,29.224 C216.631997,30.4480061 216.29,31.8399922 216.29,33.4 C216.29,34.9600078 216.631997,36.3519939 217.316,37.576 C218.000003,38.8000061 218.953994,39.7539966 220.178,40.438 C221.402006,41.1220034 222.793992,41.464 224.354,41.464 C226.874013,41.464 228.985991,40.46801 230.69,38.476 L234.434,41.932 C233.233994,43.3960073 231.746009,44.5119962 229.97,45.28 C228.193991,46.0480038 226.214011,46.432 224.03,46.432 C221.461987,46.432 219.14001,45.8740056 217.064,44.758 Z M235.577,45.28 C234.904997,44.6079966 234.569,43.768005 234.569,42.76 C234.569,41.7279948 234.904997,40.8940032 235.577,40.258 C236.249003,39.6219968 237.076995,39.304 238.061,39.304 C239.045005,39.304 239.872997,39.6219968 240.545,40.258 C241.217003,40.8940032 241.553,41.7279948 241.553,42.76 C241.553,43.768005 241.217003,44.6079966 240.545,45.28 C239.872997,45.9520034 239.045005,46.288 238.061,46.288 C237.076995,46.288 236.249003,45.9520034 235.577,45.28 Z" id="INC." fill-opacity="0.9"></path>
            <path d="M41.71,8.9 L52.204,8.9 L52.204,37.679 L69.906,37.679 L69.906,46 L41.71,46 L41.71,8.9 Z M95.3813336,20.0565 C97.8900128,22.2295109 99.1443336,25.5596442 99.1443336,30.047 L99.1443336,46 L89.7633336,46 L89.7633336,42.29 C88.3146597,45.0813473 85.4880213,46.477 81.2833336,46.477 C79.0573225,46.477 77.131675,46.0883372 75.5063336,45.311 C73.8809921,44.5336628 72.6531711,43.4825066 71.8228336,42.1575 C70.9924961,40.8324934 70.5773336,39.3220085 70.5773336,37.626 C70.5773336,34.9053197 71.6196565,32.7941742 73.7043336,31.2925 C75.7890107,29.7908258 79.0043119,29.04 83.3503336,29.04 L89.0743336,29.04 C88.897666,26.0013181 86.8660197,24.482 82.9793336,24.482 C81.6013267,24.482 80.205674,24.7028311 78.7923336,25.1445 C77.3789932,25.5861689 76.1776719,26.1956628 75.1883336,26.973 L71.7963336,20.136 C73.3863415,19.0759947 75.3208222,18.2545029 77.5998336,17.6715 C79.878845,17.0884971 82.1666554,16.797 84.4633336,16.797 C89.2333574,16.797 92.8726544,17.8834891 95.3813336,20.0565 Z M87.1663336,39.269 C88.0496713,38.7036638 88.685665,37.8733388 89.0743336,36.778 L89.0743336,34.287 L84.7283336,34.287 C81.7956523,34.287 80.3293336,35.258657 80.3293336,37.202 C80.3293336,38.0853378 80.6649969,38.7919974 81.3363336,39.322 C82.0076703,39.8520027 82.9263278,40.117 84.0923336,40.117 C85.2583394,40.117 86.2829958,39.8343362 87.1663336,39.269 Z M128.939167,18.599 C131.076845,19.8003393 132.772828,21.5228221 134.027167,23.7665 C135.281507,26.0101779 135.908667,28.6159852 135.908667,31.584 C135.908667,34.5520148 135.281507,37.1666554 134.027167,39.428 C132.772828,41.6893446 131.076845,43.4294939 128.939167,44.6485 C126.80149,45.8675061 124.425347,46.477 121.810667,46.477 C118.029982,46.477 115.203343,45.3640111 113.330667,43.138 L113.330667,46 L103.737667,46 L103.737667,6.674 L113.807667,6.674 L113.807667,19.765 C115.75101,17.7863234 118.41865,16.797 121.810667,16.797 C124.425347,16.797 126.80149,17.3976607 128.939167,18.599 Z M124.036667,36.6455 C125.167339,35.4264939 125.732667,33.7393441 125.732667,31.584 C125.732667,29.4639894 125.167339,27.8033393 124.036667,26.602 C122.905995,25.4006607 121.457343,24.8 119.690667,24.8 C117.923992,24.8 116.475339,25.4006607 115.344667,26.602 C114.213995,27.8033393 113.648667,29.4639894 113.648667,31.584 C113.648667,33.7393441 114.213995,35.4264939 115.344667,36.6455 C116.475339,37.8645061 117.923992,38.474 119.690667,38.474 C121.457343,38.474 122.905995,37.8645061 124.036667,36.6455 Z" id="Lab"></path>
            <polygon id="7" points="167.959 8.9 167.959 15.472 154.868 46 143.42 46 155.928 17.221 146.176 17.221 146.176 22.945 137.219 22.945 137.219 8.9"></polygon>
        </g>
    </g>
</svg>